PathFileType	4	(X/Y/Z)	Patient4_TMGait_0pt2_02_left_22.trc.trc
DataRate	CameraRate	NumFrames	NumMarkers	Units	OrigDataRate	OrigDataStartFrame	OrigNumFrames
45.901639344262	45.901639344262	4	33	mm	45.901639344262	89	       141
Frame#	Time	R.Midfoot.Superior			Sacral			L.Shoulder			Chest			R.Shoulder			Neck			R.ASIS			L.ASIS			R.Thigh.Superior			R.Thigh.Lateral			R.Thigh.Inferior			R.Patella			L.Thigh.Superior			L.Thigh.Lateral			L.Thigh.Inferior			L.Patella			L.Shank.Superior			L.Shank.Lateral			L.Shank.Inferior			R.Shank.Superior			R.Shank.Lateral			R.Shank.Inferior			R.Heel			R.Midfoot.Lateral			R.Toe			L.Heel			L.Midfoot.Lateral			L.Midfoot.Superior			L.Toe			L.Elbow			L.Wrist			R.Elbow			R.Wrist			
		X1	Y1	Z1	X2	Y2	Z2	X3	Y3	Z3	X4	Y4	Z4	X5	Y5	Z5	X6	Y6	Z6	X7	Y7	Z7	X8	Y8	Z8	X9	Y9	Z9	X10	Y10	Z10	X11	Y11	Z11	X12	Y12	Z12	X13	Y13	Z13	X14	Y14	Z14	X15	Y15	Z15	X16	Y16	Z16	X17	Y17	Z17	X18	Y18	Z18	X19	Y19	Z19	X20	Y20	Z20	X21	Y21	Z21	X22	Y22	Z22	X23	Y23	Z23	X24	Y24	Z24	X25	Y25	Z25	X26	Y26	Z26	X27	Y27	Z27	X28	Y28	Z28	X29	Y29	Z29	X30	Y30	Z30	X31	Y31	Z31	X32	Y32	Z32	X33	Y33	Z33	

89	51.547142857143	1266.762409112679	97.716994375349	593.156127212888	1000.856595479001	1012.345061190457	512.524947668859	1219.486257442087	1435.310100283581	356.251637699638	1290.788500674130	1363.559025882859	531.031674754981	1183.756372161898	1443.470700786955	687.097325596511	1173.898478753689	1497.793136334464	507.731792513859	1218.128242557792	939.393903297194	651.048967899212	1227.788218402168	964.494681879730	375.328774462887	1270.732319985320	745.377173143445	610.273163556943	1195.613377738699	630.944315099953	666.529636353852	1274.845219482064	584.995722366793	583.962990317746	1280.615571783050	497.453610693253	587.738568498560	1233.569094022045	736.045874129637	387.915111219664	1125.263169013954	638.367906658695	314.031463875997	1195.103489962677	543.894892152161	368.952002752683	1183.044603546464	471.429568911153	369.042710505016	1135.137776080104	411.971179979949	356.615242531323	1015.616719682784	329.120085414273	302.996381596956	1043.618904356847	200.247148229537	356.906913063070	1254.477525080212	406.731383223189	593.966163395037	1188.605220032048	301.196233622014	659.518470807943	1227.468100994639	207.570954086494	592.322370014717	1092.963446449529	43.234532136615	574.373407268052	1183.530810120047	37.302537506105	639.869163532350	1388.967444100737	48.289091343337	608.531923544494	888.284512720420	65.709269655620	394.610655053595	955.912086357248	50.366620182185	311.304924681823	1048.494002506082	100.671673227951	330.941425112318	1165.283992336305	38.520628336950	295.086317823477	1360.272136848381	1136.826952072644	212.885577604199	1617.592324249976	1133.958741346098	259.980514905990	1051.908068079733	1116.955508932131	787.779517828254	1098.671863567972	859.070808170762	795.620923241012	
90	51.568928571429	1262.344192281566	97.655608766430	593.182685674806	1000.812290619220	1013.293910140181	519.386607300237	1217.771532872233	1435.561176704838	359.133106999762	1291.932473011032	1363.751998260127	532.742328966342	1187.775810602658	1443.895145585839	690.686715298103	1174.944013015093	1498.358975136948	511.120923154899	1219.731815141484	939.633550537755	654.508780540677	1225.605679995646	965.081651675718	378.644094791411	1270.042930452206	744.718100413431	613.126715647484	1194.298968736777	630.737409394999	669.560498011805	1272.330209669304	584.478875398262	586.113827326396	1277.248369498978	497.023373309097	589.516432401661	1235.499447097860	737.965090780540	390.445144468822	1129.289083142081	638.770652604558	316.726639894027	1202.247436694185	544.936978418350	370.181458692903	1191.209645182028	471.164470223453	369.296949414323	1141.077922206724	412.323451917797	357.381475006869	1019.295901236370	332.931805440566	303.823875748168	1044.571656866597	203.076878566630	356.390393592412	1250.948541883274	406.486371278223	595.530039531294	1185.048836852812	300.767668455954	660.625955883786	1223.489255561984	207.430299010576	592.851556475239	1088.484536247170	43.209507875572	574.397116973304	1179.061583630197	37.302281921928	639.891106293828	1384.519751305739	48.189072580975	608.560350258407	886.016196266347	73.257019445694	393.750221286185	952.873046584686	54.734142606206	310.717468859026	1046.910699568317	102.111929841279	329.775757270754	1160.968402101340	37.791079296597	295.024384378388	1349.305508967490	1129.949753156029	218.398980904006	1606.263097869471	1112.231910862671	263.859271134144	1063.951054671567	1114.510426639153	795.250217133695	1117.979501944762	858.119079481805	803.692972848025	
91	51.590714285714	1257.924298333281	97.596537832818	593.202104966111	1000.644895449939	1013.943475955426	526.139885047668	1215.685436354385	1435.606116140262	361.811923075921	1292.673190974360	1363.820839748944	534.242480849461	1191.370142095653	1444.162754885674	693.997390874278	1175.620156020271	1498.728067018935	514.300103798397	1221.240351757976	939.801918663524	657.867367920411	1223.311824121720	965.487102098245	381.936271277191	1269.519123294281	744.086904546043	615.834166922703	1193.331437011473	630.424588355816	672.444457354115	1270.207212914346	583.941638566771	588.128540239379	1274.413635850053	496.489653569348	591.184455273792	1238.190686408744	740.149047893270	393.131624803469	1134.786222582436	639.065488524847	319.386981857420	1211.029642881915	546.245829967186	371.691846744340	1201.173758210276	471.017599290937	369.702637507334	1148.693757097849	412.679567864527	358.239636466741	1024.614521474629	337.245215239391	304.560775459513	1046.473314812457	206.479928728419	355.841133931897	1247.797314882390	406.153338969933	596.984402805923	1181.766849282690	300.334361130531	661.670087273611	1219.645806860922	207.242685266549	593.327658485909	1084.011899445017	43.183621209424	574.419808281042	1174.591006351236	37.298103371195	639.910986688734	1380.076474722048	48.095024357594	608.585329952083	884.305997188003	82.517570033879	392.725037584967	950.193693400723	60.432610681671	310.017221382118	1045.797940183605	104.167786436025	328.591394823824	1156.471706285763	37.042166352347	295.051815426934	1337.232034162338	1122.721507508707	224.144311299843	1592.341975209991	1087.397068081088	267.475260509479	1076.792728751223	1111.692894287771	802.388959395498	1139.151148872644	857.317818828336	811.309437774639	
92	51.612500000000	1253.520481011331	97.533118960935	593.208863385654	1000.348337733514	1014.191016173839	532.764194832998	1213.262743224737	1435.327176776760	364.282397695766	1293.011506866080	1363.670203502936	535.549738815809	1194.505866592404	1444.195189844646	697.014225827546	1175.927397098872	1498.803075421362	517.252167442752	1222.654500572346	939.821700121645	661.127526154334	1220.939881505997	965.629827678996	385.217587397687	1269.297983126302	743.475368050318	618.365014092409	1192.927300834957	629.941133851129	675.135498526197	1268.726203450305	583.362315689710	589.955387620117	1272.419082240541	495.788779498654	592.686981907051	1241.611594247350	742.583557954736	396.068494820614	1141.759614744004	639.287631149081	322.067817218638	1221.363057249324	547.883179663270	373.629539090334	1212.858603225652	471.075197598480	370.421474194314	1157.959259135480	413.084201425383	359.294487487298	1031.588899820032	342.095780215913	305.283553295070	1049.352108448137	210.529523041467	355.366596609157	1245.259103128012	405.664948601932	598.272451919609	1178.942933731001	299.876047472700	662.620112861253	1216.034327745243	206.967549841536	593.719506588468	1079.558574812642	43.169316390412	574.439627256279	1170.132222370117	37.294749309425	639.925636223694	1375.653430656563	47.978261127330	608.610103962603	883.239555270066	93.564053160363	391.587161202210	947.978674866440	67.627354580871	309.246329080429	1045.212916866741	106.983645144890	327.497647218992	1151.853781705789	36.273517688628	295.200415141393	1324.256854883441	1115.204069741014	230.121621015380	1575.468928300071	1059.760623944865	270.828002089562	1090.333561431451	1108.551120040291	809.129857807588	1162.231577213688	856.890837367351	818.385741238875	
